<?xml version="1.0" encoding="utf-8"?><!-- Uploaded to: SVG Repo, www.svgrepo.com, Generator: SVG Repo Mixer Tools -->
<svg width="16" height="16" viewBox="15 10 112 120" xmlns="http://www.w3.org/2000/svg">
    <g stroke="#fff" stroke-width="4">
        <path d="M88.07,73.64L106.73,84.1a5.61,5.61,0,0,1-4.52,10.26l-2.77-1.44" fill="none"/>
        <path d="M99.45,92.92h0a6.78,6.78,0,0,1-.71,5.71l0,0.07a5.28,5.28,0,0,1-6.82,1.62L89,98.84l-6.52-3.4"
              fill="none"
        />
        <path d="M88.77,99.27a7.74,7.74,0,0,1-1.23,6.17l0,0a4.85,4.85,0,0,1-6.06,1.23l-4.89-2.54-4.47-2.34" fill="none"
        />
        <polyline points="57.13 54.33 39.78 52.84 34.39 50.98" fill="none"
        />
        <polyline points="112.73 75.3 112.46 75.47 107.53 78.5 105.93 84.1" fill="none"
        />
        <path d="M91.12,73.64a12.34,12.34,0,0,1-3-.3,13.35,13.35,0,0,1-5.4-2.7c-1-.8-4.92-3.86-6-8.87,0-.14-0.05-0.26-0.06-0.33h-10a11.36,11.36,0,0,1-17.2,2.8l6.66-8.45,4-5a1.58,1.58,0,0,1,.9-0.57l13.5-2.82a8,8,0,0,1,5.9.07l16.67,7.17,6-1.78"
              fill="none"/>
        <line x1="33.13" y1="79.3" x2="28.26" y2="77.64" fill="none"
        />
        <path d="M40.57,85.38l-1.74,2a4.25,4.25,0,0,1-5.93.37l-0.07-.06-0.1-.08a4.26,4.26,0,0,1-.62-5.93l1.62-1.9,0.5-.58a4.26,4.26,0,0,1,5.94-.36l0.07,0.06L40.33,79a4.26,4.26,0,0,1,.62,5.94Z"
              fill="none"/>
        <path d="M48.31,92.89L45.68,96a5.15,5.15,0,0,1-7.15.67l-0.1-.08-0.1-.09a5.15,5.15,0,0,1-.52-7.19l2.64-3.1a6.11,6.11,0,0,1,.43-0.56A5.21,5.21,0,1,1,48.31,92.89Z"
              fill="none"/>
        <path d="M57.05,99.89l-2.46,2.9a5,5,0,0,1-6.93.43l-0.09-.07-0.11-.1a5,5,0,0,1-.71-6.93L49,93.48l0.22-.26a5,5,0,0,1,6.94-.42l0.09,0.07L56.33,93A5,5,0,0,1,57.05,99.89Z"
              fill="none"/>
        <path d="M63,108.64a4.59,4.59,0,0,1-6.41.39L56.5,109l-0.1-.09a4.6,4.6,0,0,1-.66-6.41l1.82-2.15L58,99.79a4.6,4.6,0,0,1,6.42-.39l0.08,0.07,0.1,0.08a4.61,4.61,0,0,1,.66,6.41Z"
              fill="none"/>
        <path d="M76.41,104.42a6.6,6.6,0,0,1-.88,5.82l0,0.06a5.24,5.24,0,0,1-6.57,1.38c-2.07-1.06-2.86-1.43-5.92-3"
              fill="none"/>
        <path d="M15,39.32l20.57,7.06a0.8,0.8,0,0,1,.5,1L25.18,83.33a0.8,0.8,0,0,1-1,.52L15,80.67" fill="none"
        />
        <path d="M127.13,77.45l-10.6,4.38a0.8,0.8,0,0,1-1-.47L103,48.73a0.8,0.8,0,0,1,.48-1l23.63-9.06" fill="none"
        />
    </g>
</svg>